# xmcd
#
# Track frame offsets:
# 150
# 18055
# 35796
#
# Disc length: 697 seconds
#
# Revision: 1
# Processed by: cddbd v1.5.2PL0 Copyright (c) Steve Scherf et al.
# Submitted via: CedeCatalogueitor 2.6.0.6 http://personales.ya.com/cdcatalogueitor
#
DISCID=1a02b703
DTITLE=Dorian - Cualquier Otra Parte [CD Single)
DYEAR=1900
DGENRE=
TTITLE0=Cualquier Otra Parte
TTITLE1=La Noche Espiral
TTITLE2=Tan Lejos De Tí
EXTD=
EXTT0=
EXTT1=
EXTT2=
PLAYORDER=
